<?xml version="1.0" encoding="utf-8"?>
<svg xmlns="http://www.w3.org/2000/svg" xmlns:xlink="http://www.w3.org/1999/xlink" style="margin: auto; background: none; display: block; shape-rendering: auto;" width="301px" height="301px" viewBox="0 0 100 100" preserveAspectRatio="xMidYMid">
<g transform="rotate(0 50 50)">
  <rect x="47.5" y="27" rx="2.5" ry="4.6000000000000005" width="5" height="10" fill="#126ba5">
    <animate attributeName="opacity" values="1;0" keyTimes="0;1" dur="1.923076923076923s" begin="-1.7482517482517481s" repeatCount="indefinite"></animate>
  </rect>
</g><g transform="rotate(32.72727272727273 50 50)">
  <rect x="47.5" y="27" rx="2.5" ry="4.6000000000000005" width="5" height="10" fill="#126ba5">
    <animate attributeName="opacity" values="1;0" keyTimes="0;1" dur="1.923076923076923s" begin="-1.5734265734265733s" repeatCount="indefinite"></animate>
  </rect>
</g><g transform="rotate(65.45454545454545 50 50)">
  <rect x="47.5" y="27" rx="2.5" ry="4.6000000000000005" width="5" height="10" fill="#126ba5">
    <animate attributeName="opacity" values="1;0" keyTimes="0;1" dur="1.923076923076923s" begin="-1.3986013986013985s" repeatCount="indefinite"></animate>
  </rect>
</g><g transform="rotate(98.18181818181819 50 50)">
  <rect x="47.5" y="27" rx="2.5" ry="4.6000000000000005" width="5" height="10" fill="#126ba5">
    <animate attributeName="opacity" values="1;0" keyTimes="0;1" dur="1.923076923076923s" begin="-1.2237762237762237s" repeatCount="indefinite"></animate>
  </rect>
</g><g transform="rotate(130.9090909090909 50 50)">
  <rect x="47.5" y="27" rx="2.5" ry="4.6000000000000005" width="5" height="10" fill="#126ba5">
    <animate attributeName="opacity" values="1;0" keyTimes="0;1" dur="1.923076923076923s" begin="-1.0489510489510487s" repeatCount="indefinite"></animate>
  </rect>
</g><g transform="rotate(163.63636363636363 50 50)">
  <rect x="47.5" y="27" rx="2.5" ry="4.6000000000000005" width="5" height="10" fill="#126ba5">
    <animate attributeName="opacity" values="1;0" keyTimes="0;1" dur="1.923076923076923s" begin="-0.8741258741258741s" repeatCount="indefinite"></animate>
  </rect>
</g><g transform="rotate(196.36363636363637 50 50)">
  <rect x="47.5" y="27" rx="2.5" ry="4.6000000000000005" width="5" height="10" fill="#126ba5">
    <animate attributeName="opacity" values="1;0" keyTimes="0;1" dur="1.923076923076923s" begin="-0.6993006993006993s" repeatCount="indefinite"></animate>
  </rect>
</g><g transform="rotate(229.0909090909091 50 50)">
  <rect x="47.5" y="27" rx="2.5" ry="4.6000000000000005" width="5" height="10" fill="#126ba5">
    <animate attributeName="opacity" values="1;0" keyTimes="0;1" dur="1.923076923076923s" begin="-0.5244755244755244s" repeatCount="indefinite"></animate>
  </rect>
</g><g transform="rotate(261.8181818181818 50 50)">
  <rect x="47.5" y="27" rx="2.5" ry="4.6000000000000005" width="5" height="10" fill="#126ba5">
    <animate attributeName="opacity" values="1;0" keyTimes="0;1" dur="1.923076923076923s" begin="-0.34965034965034963s" repeatCount="indefinite"></animate>
  </rect>
</g><g transform="rotate(294.54545454545456 50 50)">
  <rect x="47.5" y="27" rx="2.5" ry="4.6000000000000005" width="5" height="10" fill="#126ba5">
    <animate attributeName="opacity" values="1;0" keyTimes="0;1" dur="1.923076923076923s" begin="-0.17482517482517482s" repeatCount="indefinite"></animate>
  </rect>
</g><g transform="rotate(327.27272727272725 50 50)">
  <rect x="47.5" y="27" rx="2.5" ry="4.6000000000000005" width="5" height="10" fill="#126ba5">
    <animate attributeName="opacity" values="1;0" keyTimes="0;1" dur="1.923076923076923s" begin="0s" repeatCount="indefinite"></animate>
  </rect>
</g>
<!-- [ldio] generated by https://loading.io/ --></svg>